<?xml version="1.0" encoding="UTF-8"?>
<!DOCTYPE svg PUBLIC "-//W3C//DTD SVG 1.1//EN" "http://www.w3.org/Graphics/SVG/1.1/DTD/svg11.dtd">
<svg xmlns="http://www.w3.org/2000/svg" version="1.1" width="124px" height="83px" style="shape-rendering:geometricPrecision; text-rendering:geometricPrecision; image-rendering:optimizeQuality; fill-rule:evenodd; clip-rule:evenodd" xmlns:xlink="http://www.w3.org/1999/xlink">
<g><path style="opacity:0.004" fill="#fefffe" d="M 62.5,-0.5 C 62.8333,-0.5 63.1667,-0.5 63.5,-0.5C 63.3147,0.170143 62.9813,0.170143 62.5,-0.5 Z"/></g>
<g><path style="opacity:0.004" fill="#fefffe" d="M 51.5,1.5 C 52.8333,2.16667 52.8333,2.16667 51.5,1.5 Z"/></g>
<g><path style="opacity:0.004" fill="#fefffe" d="M 119.5,2.5 C 120.833,3.16667 120.833,3.16667 119.5,2.5 Z"/></g>
<g><path style="opacity:0.004" fill="#fefffe" d="M 103.5,3.5 C 104.833,4.16667 104.833,4.16667 103.5,3.5 Z"/></g>
<g><path style="opacity:0.004" fill="#fefffe" d="M 94.5,4.5 C 95.8333,5.16667 95.8333,5.16667 94.5,4.5 Z"/></g>
<g><path style="opacity:0.004" fill="#fefffe" d="M 12.5,5.5 C 13.8333,6.16667 13.8333,6.16667 12.5,5.5 Z"/></g>
<g><path style="opacity:0.004" fill="#fefffe" d="M 55.5,6.5 C 56.8333,7.16667 56.8333,7.16667 55.5,6.5 Z"/></g>
<g><path style="opacity:0.004" fill="#fefffe" d="M 65.5,6.5 C 66.8333,7.16667 66.8333,7.16667 65.5,6.5 Z"/></g>
<g><path style="opacity:0.004" fill="#fefffe" d="M 70.5,6.5 C 71.8333,7.16667 71.8333,7.16667 70.5,6.5 Z"/></g>
<g><path style="opacity:0.004" fill="#fefffe" d="M 123.5,7.5 C 123.5,7.83333 123.5,8.16667 123.5,8.5C 122.83,8.01865 122.83,7.68532 123.5,7.5 Z"/></g>
<g><path style="opacity:0.004" fill="#fefffe" d="M 86.5,8.5 C 87.8333,9.16667 87.8333,9.16667 86.5,8.5 Z"/></g>
<g><path style="opacity:0.998" fill="#e8e8eb" d="M 73.5,49.5 C 72.1634,48.6851 71.1634,47.5185 70.5,46C 65.1674,46.1642 59.834,46.6642 54.5,47.5C 52.2729,46.5994 51.2729,44.9328 51.5,42.5C 53.5744,39.331 56.241,38.331 59.5,39.5C 59.5,40.1667 59.8333,40.5 60.5,40.5C 60.5,41.1667 60.8333,41.5 61.5,41.5C 61.8333,42.8333 62.1667,42.8333 62.5,41.5C 64.7922,42.6861 67.1256,42.6861 69.5,41.5C 70.4013,40.7095 71.0679,39.7095 71.5,38.5C 76.3902,34.7773 80.3902,30.2773 83.5,25C 82.7161,21.7159 80.7161,19.5492 77.5,18.5C 72.44,21.693 67.7733,25.3596 63.5,29.5C 60.5,29.5 57.5,29.5 54.5,29.5C 54.5,28.5 54.5,27.5 54.5,26.5C 59.33,20.837 64.6633,15.6704 70.5,11C 80.6,7.80405 87.7667,10.9707 92,20.5C 93.007,25.1113 92.3403,29.4446 90,33.5C 84.6314,39.0363 79.1314,44.3697 73.5,49.5 Z"/></g>
<g><path style="opacity:0.004" fill="#fefffe" d="M 90.5,9.5 C 91.8333,10.1667 91.8333,10.1667 90.5,9.5 Z"/></g>
<g><path style="opacity:0.004" fill="#fefffe" d="M 29.5,10.5 C 30.8333,11.1667 30.8333,11.1667 29.5,10.5 Z"/></g>
<g><path style="opacity:0.004" fill="#feff00" d="M 16.5,13.5 C 17.8333,14.1667 17.8333,14.1667 16.5,13.5 Z"/></g>
<g><path style="opacity:0.004" fill="#fefffe" d="M 38.5,13.5 C 39.8333,14.1667 39.8333,14.1667 38.5,13.5 Z"/></g>
<g><path style="opacity:0.004" fill="#fefffe" d="M 111.5,13.5 C 112.833,14.1667 112.833,14.1667 111.5,13.5 Z"/></g>
<g><path style="opacity:0.004" fill="#fefffe" d="M 99.5,14.5 C 100.833,15.1667 100.833,15.1667 99.5,14.5 Z"/></g>
<g><path style="opacity:0.004" fill="#fefffe" d="M 118.5,16.5 C 119.833,17.1667 119.833,17.1667 118.5,16.5 Z"/></g>
<g><path style="opacity:0.004" fill="#fefffe" d="M 45.5,18.5 C 46.8333,19.1667 46.8333,19.1667 45.5,18.5 Z"/></g>
<g><path style="opacity:0.004" fill="#fefffe" d="M 8.5,19.5 C 9.83333,20.1667 9.83333,20.1667 8.5,19.5 Z"/></g>
<g><path style="opacity:0.004" fill="#fe00ff" d="M 43.5,20.5 C 44.8333,21.1667 44.8333,21.1667 43.5,20.5 Z"/></g>
<g><path style="opacity:0.004" fill="#fefffe" d="M 28.5,23.5 C 29.8333,24.1667 29.8333,24.1667 28.5,23.5 Z"/></g>
<g><path style="opacity:0.004" fill="#fefffe" d="M 9.5,24.5 C 10.8333,25.1667 10.8333,25.1667 9.5,24.5 Z"/></g>
<g><path style="opacity:0.004" fill="#fefffe" d="M 121.5,25.5 C 122.833,26.1667 122.833,26.1667 121.5,25.5 Z"/></g>
<g><path style="opacity:0.004" fill="#fefffe" d="M 99.5,28.5 C 100.833,29.1667 100.833,29.1667 99.5,28.5 Z"/></g>
<g><path style="opacity:0.004" fill="#fefffe" d="M 48.5,29.5 C 49.8333,30.1667 49.8333,30.1667 48.5,29.5 Z"/></g>
<g><path style="opacity:0.767" fill="#83859f" d="M 54.5,26.5 C 54.5,27.5 54.5,28.5 54.5,29.5C 57.5,29.5 60.5,29.5 63.5,29.5C 63.1667,30.1667 62.8333,30.8333 62.5,31.5C 58.8333,31.5 55.1667,31.5 51.5,31.5C 51.953,29.4348 52.953,27.7682 54.5,26.5 Z"/></g>
<g><path style="opacity:0.994" fill="#f0f1f2" d="M 51.5,31.5 C 55.1667,31.5 58.8333,31.5 62.5,31.5C 65.6743,32.0102 68.0077,33.6769 69.5,36.5C 69.5,38.1667 69.5,39.8333 69.5,41.5C 67.1256,42.6861 64.7922,42.6861 62.5,41.5C 62.1667,41.5 61.8333,41.5 61.5,41.5C 60.8333,41.5 60.5,41.1667 60.5,40.5C 59.8333,40.5 59.5,40.1667 59.5,39.5C 56.241,38.331 53.5744,39.331 51.5,42.5C 46.1007,46.5666 41.7674,51.5666 38.5,57.5C 40.0713,63.1214 43.4046,64.6214 48.5,62C 51.5,59 54.5,56 57.5,53C 56.944,52.6174 56.6107,52.1174 56.5,51.5C 56.4142,50.5041 56.7476,49.6708 57.5,49C 61.466,48.1721 65.466,47.6721 69.5,47.5C 69.5,49.8333 69.5,52.1667 69.5,54.5C 69.7564,56.7925 69.4231,58.9592 68.5,61C 66.8333,60.6667 65.1667,60.3333 63.5,60C 59.4221,64.7489 54.7554,68.7489 49.5,72C 44.1165,73.1317 39.1165,72.2984 34.5,69.5C 28.5557,62.5932 28.0557,55.2599 33,47.5C 38.4682,41.187 44.6349,35.8536 51.5,31.5 Z"/></g>
<g><path style="opacity:0.004" fill="#fefffe" d="M 111.5,32.5 C 112.833,33.1667 112.833,33.1667 111.5,32.5 Z"/></g>
<g><path style="opacity:0.004" fill="#fefffe" d="M 36.5,33.5 C 37.8333,34.1667 37.8333,34.1667 36.5,33.5 Z"/></g>
<g><path style="opacity:0.004" fill="#fefffe" d="M 90.5,35.5 C 91.8333,36.1667 91.8333,36.1667 90.5,35.5 Z"/></g>
<g><path style="opacity:0.004" fill="#fefffe" d="M 93.5,35.5 C 94.8333,36.1667 94.8333,36.1667 93.5,35.5 Z"/></g>
<g><path style="opacity:0.004" fill="#fefffe" d="M 19.5,37.5 C 20.8333,38.1667 20.8333,38.1667 19.5,37.5 Z"/></g>
<g><path style="opacity:0.622" fill="#777693" d="M 69.5,36.5 C 70.1667,37.1667 70.8333,37.8333 71.5,38.5C 71.0679,39.7095 70.4013,40.7095 69.5,41.5C 69.5,39.8333 69.5,38.1667 69.5,36.5 Z"/></g>
<g><path style="opacity:0.004" fill="#fefffe" d="M 87.5,41.5 C 88.8333,42.1667 88.8333,42.1667 87.5,41.5 Z"/></g>
<g><path style="opacity:0.004" fill="#fefffe" d="M 119.5,42.5 C 120.833,43.1667 120.833,43.1667 119.5,42.5 Z"/></g>
<g><path style="opacity:0.004" fill="#fefffe" d="M 27.5,44.5 C 28.8333,45.1667 28.8333,45.1667 27.5,44.5 Z"/></g>
<g><path style="opacity:0.004" fill="#fefffe" d="M 108.5,44.5 C 109.833,45.1667 109.833,45.1667 108.5,44.5 Z"/></g>
<g><path style="opacity:0.004" fill="#fefffe" d="M 6.5,46.5 C 7.83333,47.1667 7.83333,47.1667 6.5,46.5 Z"/></g>
<g><path style="opacity:0.769" fill="#7c7c9c" d="M 73.5,49.5 C 72.791,50.404 71.791,50.7373 70.5,50.5C 70.7678,52.099 70.4345,53.4324 69.5,54.5C 69.5,52.1667 69.5,49.8333 69.5,47.5C 65.466,47.6721 61.466,48.1721 57.5,49C 56.7476,49.6708 56.4142,50.5041 56.5,51.5C 55.6554,50.3285 54.9887,48.9952 54.5,47.5C 59.834,46.6642 65.1674,46.1642 70.5,46C 71.1634,47.5185 72.1634,48.6851 73.5,49.5 Z"/></g>
<g><path style="opacity:0.004" fill="#fefffe" d="M 28.5,48.5 C 29.8333,49.1667 29.8333,49.1667 28.5,48.5 Z"/></g>
<g><path style="opacity:0.004" fill="#fefffe" d="M 92.5,50.5 C 93.8333,51.1667 93.8333,51.1667 92.5,50.5 Z"/></g>
<g><path style="opacity:0.004" fill="#fefffe" d="M 7.5,54.5 C 8.83333,55.1667 8.83333,55.1667 7.5,54.5 Z"/></g>
<g><path style="opacity:0.004" fill="#fefffe" d="M 116.5,55.5 C 117.833,56.1667 117.833,56.1667 116.5,55.5 Z"/></g>
<g><path style="opacity:0.004" fill="#fefffe" d="M 98.5,56.5 C 99.8333,57.1667 99.8333,57.1667 98.5,56.5 Z"/></g>
<g><path style="opacity:0.004" fill="#fefffe" d="M 27.5,58.5 C 28.8333,59.1667 28.8333,59.1667 27.5,58.5 Z"/></g>
<g><path style="opacity:0.004" fill="#fefffe" d="M 75.5,58.5 C 76.8333,59.1667 76.8333,59.1667 75.5,58.5 Z"/></g>
<g><path style="opacity:0.004" fill="#fefffe" d="M 71.5,59.5 C 72.8333,60.1667 72.8333,60.1667 71.5,59.5 Z"/></g>
<g><path style="opacity:0.004" fill="#fefffe" d="M 18.5,63.5 C 19.8333,64.1667 19.8333,64.1667 18.5,63.5 Z"/></g>
<g><path style="opacity:0.004" fill="#fefffe" d="M 86.5,63.5 C 87.8333,64.1667 87.8333,64.1667 86.5,63.5 Z"/></g>
<g><path style="opacity:0.004" fill="#fefffe" d="M 88.5,63.5 C 89.8333,64.1667 89.8333,64.1667 88.5,63.5 Z"/></g>
<g><path style="opacity:0.004" fill="#fefffe" d="M 13.5,66.5 C 14.8333,67.1667 14.8333,67.1667 13.5,66.5 Z"/></g>
<g><path style="opacity:0.004" fill="#fefffe" d="M 3.5,68.5 C 4.83333,69.1667 4.83333,69.1667 3.5,68.5 Z"/></g>
<g><path style="opacity:0.004" fill="#fefffe" d="M 34.5,69.5 C 33.8333,70.1667 33.8333,70.1667 34.5,69.5 Z"/></g>
<g><path style="opacity:0.004" fill="#fefffe" d="M 4.5,71.5 C 5.83333,72.1667 5.83333,72.1667 4.5,71.5 Z"/></g>
<g><path style="opacity:0.004" fill="#fefffe" d="M 70.5,71.5 C 71.8333,72.1667 71.8333,72.1667 70.5,71.5 Z"/></g>
<g><path style="opacity:0.004" fill="#fefffe" d="M 75.5,72.5 C 76.8333,73.1667 76.8333,73.1667 75.5,72.5 Z"/></g>
<g><path style="opacity:0.004" fill="#fefffe" d="M 115.5,73.5 C 116.833,74.1667 116.833,74.1667 115.5,73.5 Z"/></g>
<g><path style="opacity:0.004" fill="#fefffe" d="M 6.5,74.5 C 7.83333,75.1667 7.83333,75.1667 6.5,74.5 Z"/></g>
<g><path style="opacity:0.004" fill="#fefffe" d="M 79.5,74.5 C 80.8333,75.1667 80.8333,75.1667 79.5,74.5 Z"/></g>
<g><path style="opacity:0.004" fill="#fefffe" d="M 57.5,75.5 C 58.8333,76.1667 58.8333,76.1667 57.5,75.5 Z"/></g>
<g><path style="opacity:0.004" fill="#fefffe" d="M 18.5,76.5 C 19.8333,77.1667 19.8333,77.1667 18.5,76.5 Z"/></g>
<g><path style="opacity:0.004" fill="#fefffe" d="M 53.5,77.5 C 54.8333,78.1667 54.8333,78.1667 53.5,77.5 Z"/></g>
<g><path style="opacity:0.004" fill="#fefffe" d="M 119.5,77.5 C 120.833,78.1667 120.833,78.1667 119.5,77.5 Z"/></g>
<g><path style="opacity:0.004" fill="#fefffe" d="M 39.5,78.5 C 40.8333,79.1667 40.8333,79.1667 39.5,78.5 Z"/></g>
<g><path style="opacity:0.004" fill="#fefffe" d="M 25.5,80.5 C 26.8333,81.1667 26.8333,81.1667 25.5,80.5 Z"/></g>
</svg>
